<svg width="1500" height="1500" viewBox="0 0 1500 1500" fill="none" xmlns="http://www.w3.org/2000/svg">
<circle cx="750" cy="750" r="750" fill="#C0D9C2"/>
<mask id="path-2-inside-1_1732_11" fill="white">
<path fill-rule="evenodd" clip-rule="evenodd" d="M1056 1046.94L945.044 213L324 780.513L499.233 844.293L807.062 562.996L862.06 976.351L1056 1046.94Z"/>
</mask>
<path fill-rule="evenodd" clip-rule="evenodd" d="M1056 1046.94L945.044 213L324 780.513L499.233 844.293L807.062 562.996L862.06 976.351L1056 1046.94Z" fill="#008B8B"/>
<path d="M945.044 213L959.913 211.022L956.125 182.554L934.925 201.927L945.044 213ZM1056 1046.94L1050.87 1061.03L1074.13 1069.5L1070.87 1044.96L1056 1046.94ZM324 780.513L313.881 769.44L295.605 786.141L318.87 794.609L324 780.513ZM499.233 844.293L494.102 858.388L502.642 861.497L509.351 855.366L499.233 844.293ZM807.062 562.996L821.931 561.018L818.144 532.551L796.944 551.923L807.062 562.996ZM862.06 976.351L847.191 978.329L848.389 987.338L856.929 990.446L862.06 976.351ZM930.175 214.978L1041.13 1048.92L1070.87 1044.96L959.913 211.022L930.175 214.978ZM334.119 791.586L955.162 224.073L934.925 201.927L313.881 769.44L334.119 791.586ZM504.363 830.197L329.13 766.418L318.87 794.609L494.102 858.388L504.363 830.197ZM509.351 855.366L817.181 574.069L796.944 551.923L489.114 833.22L509.351 855.366ZM792.193 564.975L847.191 978.329L876.929 974.373L821.931 561.018L792.193 564.975ZM1061.13 1032.84L867.19 962.256L856.929 990.446L1050.87 1061.03L1061.13 1032.84Z" fill="black" mask="url(#path-2-inside-1_1732_11)"/>
<path d="M414.563 1063.17L728.601 776.198L784.708 1197.89L414.563 1063.17Z" fill="#008B8B" stroke="black" stroke-width="15"/>
</svg>
