<svg width="399" height="373" viewBox="0 0 399 373" fill="none" xmlns="http://www.w3.org/2000/svg">
<path d="M102.999 232.913C102.918 223.19 102.813 213.467 102.764 203.744C102.725 195.941 102.754 188.137 102.754 180.333C102.754 167.971 102.767 155.609 102.736 143.248C102.733 141.929 102.473 140.611 102.287 138.869C93.5409 142.795 91.8735 150.755 89.3466 158.08C86.7811 165.517 85.6409 173.107 88.3227 180.961C87.9095 181.117 87.4963 181.273 87.0831 181.429C85.0234 179.136 82.5187 177.104 80.9931 174.499C77.3991 168.362 73.8577 162.125 71.1144 155.584C69.5149 151.771 69.1052 147.32 68.8396 143.112C68.1131 131.605 69.3145 120.252 73.9078 109.584C75.7703 105.258 78.6935 101.375 81.2492 97.3636C86.0465 89.8343 94.2731 87.9013 101.891 85.2759C114.12 81.0614 126.908 80.3853 139.71 80.7381C156.87 81.2111 174.02 82.0314 191.177 82.6602C202.9 83.0898 214.63 83.8334 226.349 83.695C233.633 83.609 240.917 82.2583 248.172 81.2609C259.18 79.7476 269.477 76.2416 278.794 70.0132C283.101 67.1345 286.536 63.4892 289.554 59.3384C292.434 55.3763 295.523 51.566 298.402 47.6024C299.557 46.011 300.395 44.1889 301.648 42C302.432 43.3224 303.212 44.215 303.536 45.2502C306.245 53.8875 307.889 62.8863 305.968 71.6906C302.989 85.3455 297.725 98.1469 286.915 107.842C279.326 114.649 270.262 118.281 260.428 120.419C246.142 123.526 231.679 124.152 217.156 123.553C200.552 122.868 183.964 121.79 167.362 121.05C161.639 120.794 155.889 120.906 150.161 121.104C146.156 121.242 145.646 121.981 145.653 125.998C145.681 141.926 145.721 157.854 145.661 174.26C145.149 175.232 144.733 175.724 144.097 176.253C139.98 178.872 136.012 181.357 132.199 184.061C124.883 189.249 119.438 196.041 116.386 204.456C113.777 211.649 111.82 219.077 109.461 226.364C108.426 229.56 106.309 231.87 102.999 232.913Z" fill="#8CE9B5"/>
<path d="M144.316 176.22C144.733 175.728 145.149 175.235 145.668 174.568C160.684 170.298 176.051 170.829 191.278 169.86C208.228 168.783 225.17 167.561 242.106 166.275C249.235 165.734 256.372 165.098 263.45 164.107C281.584 161.57 294.785 151.429 304.889 136.672C305.544 135.714 306.373 134.875 307.121 133.98C307.407 134.09 307.693 134.2 307.98 134.309C307.98 136.059 308.03 137.811 307.972 139.559C307.519 153.022 304.55 166.114 300.462 178.781C296.516 191.007 286.333 198.607 276.217 205.665C266.434 212.491 255.018 215.49 242.74 218.477C242.74 223.057 242.923 227.846 242.702 232.617C242.238 242.647 241.436 252.662 241.01 262.694C240.597 272.395 240.568 282.113 240.161 291.815C240.082 293.699 239.421 295.793 238.384 297.366C229.121 311.42 216.997 322.276 201.538 329.107C197.898 330.715 193.845 331.392 189.737 332.568C189.529 331.454 189.332 330.96 189.364 330.482C190.41 314.813 191.566 299.151 192.519 283.477C193.575 266.088 194.501 248.69 195.314 231.288C195.389 229.703 194.65 227.673 193.576 226.507C186.492 218.816 172.296 217.812 164.274 224.644C159.744 228.501 155.807 233.053 151.588 237.277C150.696 238.17 149.738 238.997 148.561 239.597C147.889 233.501 147.416 227.666 147.055 221.823C146.116 206.624 145.226 191.422 144.316 176.22Z" fill="#161F48"/>
<path d="M144.097 176.254C145.226 191.42 146.116 206.622 147.055 221.821C147.416 227.664 147.889 233.5 148.338 239.621C145.459 243.38 142.932 247.283 139.574 250.244C131.671 257.212 122.937 262.84 112.309 264.983C96.4126 268.19 82.6985 261.985 74.8209 247.735C72.0354 242.696 69.3066 237.625 66.6353 232.525C66.0268 231.364 65.7635 230.021 65 227.744C67.6416 228.701 69.3936 229.277 71.1007 229.964C80.2464 233.647 89.6183 235.777 99.5353 234.134C100.574 233.962 101.567 233.515 102.791 233.055C106.309 231.872 108.426 229.561 109.461 226.366C111.821 219.078 113.777 211.651 116.386 204.457C119.438 196.042 124.884 189.25 132.199 184.062C136.012 181.358 139.98 178.873 144.097 176.254Z" fill="#47AD6E"/>
</svg>
